<svg xmlns="http://www.w3.org/2000/svg" viewBox="0 0 860 420" font-family="Poppins,Arial,sans-serif">
  <defs>
    <radialGradient id="felt" cx="36%" cy="30%" r="82%">
      <stop offset="0%" stop-color="#D3EE7A"/><stop offset="70%" stop-color="#A8D05D"/><stop offset="100%" stop-color="#8FBF3E"/>
    </radialGradient>
    <radialGradient id="core" cx="40%" cy="36%" r="72%">
      <stop offset="0%" stop-color="#5a5a52"/><stop offset="55%" stop-color="#26261F"/><stop offset="100%" stop-color="#0d0d0a"/>
    </radialGradient>
  </defs>

  <!-- Balle -->
  <circle cx="340" cy="210" r="165" fill="url(#felt)"/>
  <!-- coutures -->
  <path d="M188 158 Q340 78 476 150" fill="none" stroke="#FBF8F0" stroke-width="7"/>
  <path d="M190 268 Q340 356 486 276" fill="none" stroke="#FBF8F0" stroke-width="7"/>
  <!-- Ouverture : cœur en caoutchouc révélé (entièrement dans la balle) -->
  <ellipse cx="386" cy="206" rx="112" ry="132" fill="#7BAF33"/>
  <ellipse cx="394" cy="206" rx="92" ry="112" fill="url(#core)"/>
  <ellipse cx="368" cy="178" rx="28" ry="38" fill="#7a7a70" opacity="0.35"/>
  <circle cx="340" cy="210" r="165" fill="none" stroke="#0F6B5B" stroke-width="2" opacity="0.3"/>

  <!-- Repères -->
  <g fill="none" stroke="#E9F5CE" stroke-width="2.5">
    <circle cx="256" cy="120" r="34"/><path d="M222 120 L120 94"/>
    <circle cx="243" cy="306" r="30"/><path d="M213 306 L120 328"/>
    <circle cx="470" cy="206" r="36"/><path d="M506 206 L616 178"/>
  </g>
  <g font-weight="800" font-size="24" fill="#E9F5CE">
    <text x="112" y="90" text-anchor="end">FEUTRINE</text>
    <text x="112" y="334" text-anchor="end">JOINT</text>
    <text x="624" y="173">NOYAU EN</text>
    <text x="624" y="201">CAOUTCHOUC</text>
  </g>
</svg>
